# xmcd
#
# Track frame offsets:
# 150
# 24527
# 48439
# 73263
# 95663
# 117550
# 152642
# 172274
# 197631
# 221465
# 252147
# 276089
# 297001
#
# Disc length: 4248 seconds
#
# Revision: 0
# Processed by: cddbd v1.4PL0 Copyright (c) Steve Scherf et al.
# Submitted via: Audion 2.5.0 (http://www.panic.com/audion/)
#
DISCID=c510960d
DTITLE=BAP - Amerika
DYEAR=1900
DGENRE=
TTITLE0=Nix wie bessher
TTITLE1=Silver un Jold
TTITLE2=Amok
TTITLE3=Wie ?ne blaue Ballon
TTITLE4=Saach, wat ess bloss passiert
TTITLE5=Amerika
TTITLE6=Niemohls verstonn
TTITLE7=Talk Show
TTITLE8=Do jeht ming Frau
TTITLE9=Nivembermorje
TTITLE10=Voellig Ejal
TTITLE11=Wirklich noch nie
TTITLE12=Asphaltpirate
EXTD=
EXTT0=
EXTT1=
EXTT2=
EXTT3=
EXTT4=
EXTT5=
EXTT6=
EXTT7=
EXTT8=
EXTT9=
EXTT10=
EXTT11=
EXTT12=
PLAYORDER=
